<svg width="24" height="25" viewBox="0 0 24 25" fill="none" xmlns="http://www.w3.org/2000/svg">
<path fill-rule="evenodd" clip-rule="evenodd" d="M16 3.53125H8C5.23858 3.53125 3 5.76983 3 8.53125V16.5312C3 19.2927 5.23858 21.5312 8 21.5312H16C18.7614 21.5312 21 19.2927 21 16.5312V8.53125C21 5.76983 18.7614 3.53125 16 3.53125ZM19.25 16.5312C19.2445 18.3238 17.7926 19.7757 16 19.7812H8C6.20735 19.7757 4.75549 18.3238 4.75 16.5312V8.53125C4.75549 6.7386 6.20735 5.28674 8 5.28125H16C17.7926 5.28674 19.2445 6.7386 19.25 8.53125V16.5312ZM16.75 8.78125C17.3023 8.78125 17.75 8.33353 17.75 7.78125C17.75 7.22897 17.3023 6.78125 16.75 6.78125C16.1977 6.78125 15.75 7.22897 15.75 7.78125C15.75 8.33353 16.1977 8.78125 16.75 8.78125ZM12 8.03125C9.51472 8.03125 7.5 10.046 7.5 12.5312C7.5 15.0166 9.51472 17.0312 12 17.0312C14.4853 17.0312 16.5 15.0166 16.5 12.5312C16.5027 11.3369 16.0294 10.1908 15.1849 9.34633C14.3404 8.50184 13.1943 8.02859 12 8.03125ZM9.25 12.5312C9.25 14.05 10.4812 15.2812 12 15.2812C13.5188 15.2812 14.75 14.05 14.75 12.5312C14.75 11.0125 13.5188 9.78125 12 9.78125C10.4812 9.78125 9.25 11.0125 9.25 12.5312Z" fill="black"/>
</svg>
