<svg width="24" height="25" viewBox="0 0 24 25" fill="none" xmlns="http://www.w3.org/2000/svg">
<path fill-rule="evenodd" clip-rule="evenodd" d="M5 3.53125H19C20.1046 3.53125 21 4.42668 21 5.53125V19.5312C21 20.6358 20.1046 21.5312 19 21.5312H5C3.89543 21.5312 3 20.6358 3 19.5312V5.53125C3 4.42668 3.89543 3.53125 5 3.53125ZM8 18.5312C8.27614 18.5312 8.5 18.3074 8.5 18.0312V11.0312C8.5 10.7551 8.27614 10.5312 8 10.5312H6.5C6.22386 10.5312 6 10.7551 6 11.0312V18.0312C6 18.3074 6.22386 18.5312 6.5 18.5312H8ZM7.25 9.53125C6.42157 9.53125 5.75 8.85968 5.75 8.03125C5.75 7.20282 6.42157 6.53125 7.25 6.53125C8.07843 6.53125 8.75 7.20282 8.75 8.03125C8.75 8.85968 8.07843 9.53125 7.25 9.53125ZM17.5 18.5312C17.7761 18.5312 18 18.3074 18 18.0312V13.4312C18.0325 11.842 16.8576 10.4858 15.28 10.2913C14.177 10.1905 13.1083 10.7057 12.5 11.6313V11.0312C12.5 10.7551 12.2761 10.5312 12 10.5312H10.5C10.2239 10.5312 10 10.7551 10 11.0312V18.0312C10 18.3074 10.2239 18.5312 10.5 18.5312H12C12.2761 18.5312 12.5 18.3074 12.5 18.0312V14.2812C12.5 13.4529 13.1716 12.7812 14 12.7812C14.8284 12.7812 15.5 13.4529 15.5 14.2812V18.0312C15.5 18.3074 15.7239 18.5312 16 18.5312H17.5Z" fill="black"/>
</svg>
