<svg width="24" height="25" viewBox="0 0 24 25" fill="none" xmlns="http://www.w3.org/2000/svg">
<path d="M20.9728 7.24865C20.5084 7.86817 19.947 8.40858 19.3103 8.84901C19.3103 9.01084 19.3103 9.17267 19.3103 9.3435C19.3154 12.2824 18.1415 15.1004 16.0518 17.1658C13.962 19.2312 11.1312 20.3712 8.19405 20.3302C6.49599 20.3359 4.81967 19.9482 3.29642 19.1974C3.21428 19.1615 3.16131 19.0803 3.16162 18.9906V18.8917C3.16162 18.7626 3.26623 18.658 3.39527 18.658C5.06442 18.6029 6.67402 18.0242 7.99634 17.0037C6.48553 16.9732 5.12619 16.0782 4.5006 14.702C4.46901 14.6269 4.47884 14.5406 4.52657 14.4745C4.57429 14.4084 4.653 14.372 4.73425 14.3784C5.19342 14.4245 5.65718 14.3818 6.1002 14.2525C4.43239 13.9063 3.17921 12.5217 2.99986 10.827C2.99349 10.7457 3.02992 10.667 3.096 10.6192C3.16207 10.5715 3.24824 10.5616 3.32338 10.5933C3.77094 10.7908 4.25409 10.8948 4.74324 10.8989C3.28184 9.93971 2.65061 8.1153 3.20655 6.45747C3.26394 6.29638 3.40181 6.17737 3.5695 6.14419C3.73718 6.111 3.90996 6.16853 4.02432 6.29564C5.99639 8.3945 8.70604 9.64521 11.5819 9.78404C11.5083 9.4901 11.4721 9.18801 11.4741 8.88497C11.501 7.29597 12.4842 5.88046 13.9634 5.30112C15.4425 4.72179 17.1249 5.09328 18.223 6.24169C18.9714 6.0991 19.695 5.8477 20.3707 5.49546C20.4202 5.46456 20.483 5.46456 20.5325 5.49546C20.5634 5.54498 20.5634 5.60777 20.5325 5.65729C20.2052 6.40677 19.6523 7.03537 18.9509 7.45544C19.5651 7.38421 20.1685 7.23932 20.7482 7.02389C20.797 6.99067 20.8611 6.99067 20.9099 7.02389C20.9508 7.04259 20.9814 7.07836 20.9935 7.12167C21.0056 7.16498 20.998 7.21143 20.9728 7.24865Z" fill="black"/>
</svg>
